<?xml version="1.0" encoding="utf-8"?>
<!-- Generator: Adobe Illustrator 22.1.0, SVG Export Plug-In . SVG Version: 6.00 Build 0)  -->
<svg version="1.1" id="Calque_2_1_" xmlns="http://www.w3.org/2000/svg" xmlns:xlink="http://www.w3.org/1999/xlink" x="0px"
	 y="0px" viewBox="0 0 499.9 154.3" style="enable-background:new 0 0 499.9 154.3;" xml:space="preserve">
<style type="text/css">
	.st0{fill:#3D3834;}
	.st1{fill:#783CBD;}
	.st2{fill:#FFFFFF;}
</style>
<path class="st0" d="M217.1,32.9h42.2c2.4,0,4.3,1.9,4.3,4.3l0,0c0,2.4-1.9,4.3-4.3,4.3h-27.8c-2.4,0-4.3,1.9-4.3,4.3v11
	c0,2.4,1.9,4.3,4.3,4.3h25.6c2.4,0,4.3,1.9,4.3,4.3l0,0c0,2.4-1.9,4.3-4.3,4.3h-25.6c-2.4,0-4.3,1.9-4.3,4.3v13.3
	c0,2.4,1.9,4.3,4.3,4.3h29.4c2.4,0,4.3,1.9,4.3,4.3l0,0c0,2.4-1.9,4.3-4.3,4.3h-43.7L217.1,32.9L217.1,32.9z"/>
<path class="st0" d="M326.7,37.2L326.7,37.2c0,2.4-1.9,4.3-4.3,4.3h-12.8c-2.4,0-4.3,1.9-4.3,4.3v49.9c0,2.4-1.9,4.3-4.3,4.3h-1.5
	c-2.4,0-4.3-1.9-4.3-4.3v-50c0-2.4-1.9-4.3-4.3-4.3h-12.8c-2.4,0-4.3-1.9-4.3-4.3l0,0c0-2.4,1.9-4.3,4.3-4.3h44.4
	C324.8,32.9,326.7,34.8,326.7,37.2z"/>
<path class="st0" d="M341.4,77.1c1.8,0,3.3,1.2,3.7,2.9c0.2,1.1,0.6,2.1,1,3.1c0.8,1.8,1.8,3.4,3.1,4.8c1.3,1.3,2.8,2.4,4.5,3.1
	s3.7,1.1,5.7,1.1c1.9,0,3.6-0.2,5.3-0.6c1.7-0.4,3.2-1.1,4.5-2s2.3-2.1,3.1-3.5c0.8-1.4,1.1-3.2,1.1-5.2c0-1.6-0.4-3-1.3-4.1
	c-0.9-1.2-2-2.2-3.4-3c-1.4-0.9-3-1.6-4.8-2.2s-3.6-1.2-5.4-1.8c-1.7-0.5-3.4-1.1-5.2-1.6c-1.7-0.6-3.4-1.3-5.1-2
	c-1.6-0.8-3.1-1.6-4.5-2.6s-2.6-2.1-3.7-3.4c-1-1.3-1.9-2.8-2.5-4.4c-0.6-1.7-0.9-3.6-0.9-5.7c0-2.7,0.5-5.1,1.6-7.2
	c1.1-2.1,2.6-3.8,4.5-5.2s4.2-2.5,6.9-3.2c2.7-0.7,5.7-1.1,8.9-1.1c2.8,0,5.4,0.3,7.6,0.9c2.2,0.6,4.1,1.4,5.8,2.4
	c1.6,1,3,2.2,4.2,3.5c1.1,1.4,2.1,2.8,2.8,4.3c0.7,1.5,1.3,3.1,1.6,4.6l0,0c0.6,2.3-1.3,4.6-3.7,4.6h-2.1c-1.7,0-3.3-1.2-3.7-2.9
	c-0.2-0.9-0.5-1.8-0.9-2.6c-0.7-1.6-1.7-2.9-2.8-3.9c-1.2-1-2.5-1.8-4-2.4c-1.5-0.5-3.1-0.8-4.8-0.8c-1.5,0-3,0.2-4.5,0.5
	s-2.8,0.8-4,1.5s-2.1,1.6-2.8,2.7c-0.7,1.1-1.1,2.5-1.1,4.1s0.4,3.1,1.3,4.3s2,2.2,3.4,3.1s3,1.7,4.8,2.3c1.8,0.7,3.7,1.3,5.5,1.8
	c1.7,0.5,3.4,1.1,5.2,1.7c1.7,0.6,3.4,1.3,5,2c1.6,0.8,3.1,1.6,4.5,2.6s2.6,2.1,3.6,3.3c1,1.3,1.8,2.7,2.4,4.3
	c0.6,1.6,0.9,3.4,0.9,5.5c0,3.2-0.6,6-1.8,8.4s-2.8,4.4-4.9,6s-4.6,2.8-7.5,3.7c-2.9,0.8-6,1.2-9.4,1.2c-2,0-4-0.2-6-0.7
	s-3.9-1.2-5.7-2.1c-1.8-0.9-3.5-2.1-5-3.4s-2.9-2.9-4-4.6s-2-3.6-2.7-5.7c-0.2-0.7-0.4-1.4-0.6-2.2c-0.5-2.3,1.3-4.5,3.7-4.5h2.6
	V77.1z"/>
<path class="st0" d="M458.3,77.1c1.8,0,3.3,1.2,3.7,2.9c0.2,1.1,0.6,2.1,1,3.1c0.8,1.8,1.8,3.4,3.1,4.8c1.3,1.3,2.8,2.4,4.5,3.1
	s3.7,1.1,5.7,1.1c1.9,0,3.6-0.2,5.3-0.6c1.7-0.4,3.2-1.1,4.5-2s2.3-2.1,3.1-3.5c0.8-1.4,1.1-3.2,1.1-5.2c0-1.6-0.4-3-1.3-4.1
	c-0.9-1.2-2-2.2-3.4-3c-1.4-0.9-3-1.6-4.8-2.2s-3.6-1.2-5.4-1.8c-1.7-0.5-3.4-1.1-5.2-1.6c-1.7-0.6-3.4-1.3-5.1-2
	c-1.6-0.8-3.1-1.6-4.5-2.6s-2.6-2.1-3.7-3.4c-1-1.3-1.9-2.8-2.5-4.4c-0.6-1.7-0.9-3.6-0.9-5.7c0-2.7,0.5-5.1,1.6-7.2
	c1.1-2.1,2.6-3.8,4.5-5.2s4.2-2.5,6.9-3.2c2.7-0.7,5.7-1.1,8.9-1.1c2.8,0,5.4,0.3,7.6,0.9c2.2,0.6,4.1,1.4,5.8,2.4
	c1.6,1,3,2.2,4.2,3.5c1.1,1.4,2.1,2.8,2.8,4.3c0.7,1.5,1.3,3.1,1.6,4.6l0,0c0.6,2.3-1.3,4.6-3.7,4.6h-2.1c-1.7,0-3.3-1.2-3.7-2.9
	c-0.2-0.9-0.5-1.8-0.9-2.6c-0.7-1.6-1.7-2.9-2.8-3.9c-1.2-1-2.5-1.8-4-2.4c-1.5-0.5-3.1-0.8-4.8-0.8c-1.5,0-3,0.2-4.5,0.5
	s-2.8,0.8-4,1.5s-2.1,1.6-2.8,2.7c-0.7,1.1-1.1,2.5-1.1,4.1s0.4,3.1,1.3,4.3s2,2.2,3.4,3.1s3,1.7,4.8,2.3c1.8,0.7,3.7,1.3,5.5,1.8
	c1.7,0.5,3.4,1.1,5.2,1.7c1.7,0.6,3.4,1.3,5,2c1.6,0.8,3.1,1.6,4.5,2.6s2.6,2.1,3.6,3.3c1,1.3,1.8,2.7,2.4,4.3
	c0.6,1.6,0.9,3.4,0.9,5.5c0,3.2-0.6,6-1.8,8.4s-2.8,4.4-4.9,6s-4.6,2.8-7.5,3.7c-2.9,0.8-6,1.2-9.4,1.2c-2,0-4-0.2-6-0.7
	s-3.9-1.2-5.7-2.1c-1.8-0.9-3.5-2.1-5-3.4s-2.9-2.9-4-4.6s-2-3.6-2.7-5.7c-0.2-0.7-0.4-1.4-0.6-2.2c-0.5-2.3,1.3-4.5,3.7-4.5h2.6
	V77.1z"/>
<path class="st1" d="M421.2,56.9l14-22.1c0.7-1.1,1.9-1.8,3.2-1.8h3.2c3,0,4.8,3.2,3.3,5.8l-21.3,35.5c-0.4,0.6-0.5,1.3-0.5,2v19.9
	c0,2.1-1.7,3.8-3.8,3.8h-3c-2.1,0-3.8-1.7-3.8-3.8v-20c0-0.7-0.2-1.4-0.5-2l-21.3-35.5c-1.5-2.5,0.3-5.8,3.3-5.8h3.2
	c1.3,0,2.5,0.7,3.2,1.7l14.5,22.2C416.3,59.2,419.7,59.2,421.2,56.9z"/>
<path class="st1" d="M25.4,20v114.4c0.1,0.1,0.3,0.2,0.4,0.4l43-127.2c2.1-4.9,5.1-7.4,9-7.5c-0.2,0-0.4,0-0.6,0
	C57.2,0,39.1,7.6,25.4,20z"/>
<path class="st1" d="M77.7,18.8L37,137.2l-1.6,4.8c12,7.8,26.4,12.3,41.8,12.3c15.7,0,30.4-4.7,42.6-12.8l-1.6-4.7L77.7,18.8z"/>
<path class="st1" d="M12.5,119.3V35C4.6,47.1,0,61.6,0,77.1C0,92.7,4.6,107.1,12.5,119.3z"/>
<path class="st1" d="M86.9,7.5l42.7,126.2c0.3-0.2,0.5-0.5,0.8-0.7V21.3C116.7,8.4,98.5,0.3,78.3,0C81.9,0.2,84.8,2.7,86.9,7.5z"/>
<path class="st2" d="M77.8,0c0.2,0,0.4,0,0.5,0c-0.1,0-0.2,0-0.3,0C77.9,0,77.8,0,77.8,0z"/>
<path class="st0" d="M203.3,32.6h-9.6l-19.8,52l-19.3-52h-11.7V35v1.9v52.6v7.6v20.2c7.2-11.7,12.3-25.5,12.3-40.2
	c0-1.8,0.1-3.6,0-5.4c0.1-1.9-0.1-3.8-0.1-5.7c0-2.5-0.1-5-0.4-7.4l13.8,36.9c0.9,2.5,3.3,4.1,5.9,4.1c2.6,0,5-1.6,5.9-4.1
	l15.1-41.3v45.4h10.1V34.8C205.5,33.6,204.5,32.6,203.3,32.6z"/>
</svg>
